<mxfile host="app.diagrams.net" modified="2023-12-28T12:05:29.441Z" agent="Mozilla/5.0 (Macintosh; Intel Mac OS X 10_15_7) AppleWebKit/605.1.15 (KHTML, like Gecko) Version/17.0 Safari/605.1.15" etag="uq6u7fdAX1cIl4HLGWZi" version="22.1.15" type="device">
  <diagram name="Page-1" id="itNDinaoARFPzPOW0Tq6">
    <mxGraphModel dx="751" dy="464" grid="1" gridSize="10" guides="1" tooltips="1" connect="1" arrows="1" fold="1" page="1" pageScale="1" pageWidth="850" pageHeight="1100" math="0" shadow="0">
      <root>
        <mxCell id="0" />
        <mxCell id="1" parent="0" />
        <mxCell id="NQuJ4hyEysOtelg9H0ul-4" value="" style="rounded=0;whiteSpace=wrap;html=1;fontFamily=Computer Modern;fontSource=https%3A%2F%2Ffonts.googleapis.com%2Fcss%3Ffamily%3DComputer%2BModern;fillStyle=hatch;gradientColor=none;fillColor=#999999;" vertex="1" parent="1">
          <mxGeometry x="400" y="530" width="240" height="20" as="geometry" />
        </mxCell>
        <mxCell id="NQuJ4hyEysOtelg9H0ul-69" value="" style="rounded=0;whiteSpace=wrap;html=1;fontFamily=Computer Modern;fontSource=https%3A%2F%2Ffonts.googleapis.com%2Fcss%3Ffamily%3DComputer%2BModern;fillStyle=solid;fillColor=#ffffff;" vertex="1" parent="1">
          <mxGeometry x="460" y="530" width="120" height="20" as="geometry" />
        </mxCell>
        <mxCell id="NQuJ4hyEysOtelg9H0ul-33" value="" style="rounded=0;whiteSpace=wrap;html=1;fontFamily=Computer Modern;fontSource=https%3A%2F%2Ffonts.googleapis.com%2Fcss%3Ffamily%3DComputer%2BModern;fillStyle=dashed;fillColor=#CCCCCC;" vertex="1" parent="1">
          <mxGeometry x="460" y="530" width="120" height="20" as="geometry" />
        </mxCell>
        <mxCell id="NQuJ4hyEysOtelg9H0ul-70" value="" style="rounded=0;whiteSpace=wrap;html=1;fontFamily=Computer Modern;fontSource=https%3A%2F%2Ffonts.googleapis.com%2Fcss%3Ffamily%3DComputer%2BModern;" vertex="1" parent="1">
          <mxGeometry x="470" y="530" width="90" height="20" as="geometry" />
        </mxCell>
        <mxCell id="NQuJ4hyEysOtelg9H0ul-1" value="" style="rounded=1;whiteSpace=wrap;html=1;arcSize=7;fontFamily=Computer Modern;fontSource=https%3A%2F%2Ffonts.googleapis.com%2Fcss%3Ffamily%3DComputer%2BModern;" vertex="1" parent="1">
          <mxGeometry x="380" y="260" width="280" height="239" as="geometry" />
        </mxCell>
        <mxCell id="NQuJ4hyEysOtelg9H0ul-2" value="" style="rounded=0;whiteSpace=wrap;html=1;fontFamily=Computer Modern;fontSource=https%3A%2F%2Ffonts.googleapis.com%2Fcss%3Ffamily%3DComputer%2BModern;" vertex="1" parent="1">
          <mxGeometry x="560" y="590" width="80" height="20" as="geometry" />
        </mxCell>
        <mxCell id="NQuJ4hyEysOtelg9H0ul-3" value="" style="rounded=0;whiteSpace=wrap;html=1;fontFamily=Computer Modern;fontSource=https%3A%2F%2Ffonts.googleapis.com%2Fcss%3Ffamily%3DComputer%2BModern;" vertex="1" parent="1">
          <mxGeometry x="400" y="590" width="150" height="20" as="geometry" />
        </mxCell>
        <mxCell id="NQuJ4hyEysOtelg9H0ul-5" value="" style="endArrow=none;dashed=1;html=1;rounded=0;fontFamily=Computer Modern;fontSource=https%3A%2F%2Ffonts.googleapis.com%2Fcss%3Ffamily%3DComputer%2BModern;" edge="1" parent="1">
          <mxGeometry width="50" height="50" relative="1" as="geometry">
            <mxPoint x="390" y="580" as="sourcePoint" />
            <mxPoint x="660" y="580" as="targetPoint" />
          </mxGeometry>
        </mxCell>
        <mxCell id="NQuJ4hyEysOtelg9H0ul-6" value="Hardware" style="text;html=1;align=center;verticalAlign=middle;resizable=0;points=[];autosize=1;strokeColor=none;fillColor=none;fontStyle=1;fontFamily=Computer Modern;fontSource=https%3A%2F%2Ffonts.googleapis.com%2Fcss%3Ffamily%3DComputer%2BModern;" vertex="1" parent="1">
          <mxGeometry x="480" y="640" width="80" height="30" as="geometry" />
        </mxCell>
        <mxCell id="NQuJ4hyEysOtelg9H0ul-7" value="Operating System" style="text;html=1;align=center;verticalAlign=middle;resizable=0;points=[];autosize=1;strokeColor=none;fillColor=none;fontStyle=1;fontFamily=Computer Modern;fontSource=https%3A%2F%2Ffonts.googleapis.com%2Fcss%3Ffamily%3DComputer%2BModern;" vertex="1" parent="1">
          <mxGeometry x="460" y="550" width="120" height="30" as="geometry" />
        </mxCell>
        <mxCell id="NQuJ4hyEysOtelg9H0ul-8" value="" style="endArrow=none;dashed=1;html=1;rounded=0;fontFamily=Computer Modern;fontSource=https%3A%2F%2Ffonts.googleapis.com%2Fcss%3Ffamily%3DComputer%2BModern;" edge="1" parent="1">
          <mxGeometry width="50" height="50" relative="1" as="geometry">
            <mxPoint x="390" y="509" as="sourcePoint" />
            <mxPoint x="660" y="509" as="targetPoint" />
          </mxGeometry>
        </mxCell>
        <mxCell id="NQuJ4hyEysOtelg9H0ul-9" value="WebAssembly Runtime" style="text;html=1;align=right;verticalAlign=middle;resizable=0;points=[];autosize=1;strokeColor=none;fillColor=none;fontStyle=1;fontFamily=Computer Modern;fontSource=https%3A%2F%2Ffonts.googleapis.com%2Fcss%3Ffamily%3DComputer%2BModern;" vertex="1" parent="1">
          <mxGeometry x="450" y="260" width="140" height="30" as="geometry" />
        </mxCell>
        <mxCell id="NQuJ4hyEysOtelg9H0ul-10" value="" style="rounded=1;whiteSpace=wrap;html=1;dashed=1;dashPattern=8 8;arcSize=10;fontFamily=Computer Modern;fontSource=https%3A%2F%2Ffonts.googleapis.com%2Fcss%3Ffamily%3DComputer%2BModern;" vertex="1" parent="1">
          <mxGeometry x="400" y="300" width="240" height="129" as="geometry" />
        </mxCell>
        <mxCell id="NQuJ4hyEysOtelg9H0ul-11" value="" style="rounded=0;whiteSpace=wrap;html=1;fontFamily=Computer Modern;fontSource=https%3A%2F%2Ffonts.googleapis.com%2Fcss%3Ffamily%3DComputer%2BModern;" vertex="1" parent="1">
          <mxGeometry x="410" y="380" width="220" height="20" as="geometry" />
        </mxCell>
        <mxCell id="NQuJ4hyEysOtelg9H0ul-12" value="" style="rounded=0;whiteSpace=wrap;html=1;fontFamily=Computer Modern;fontSource=https%3A%2F%2Ffonts.googleapis.com%2Fcss%3Ffamily%3DComputer%2BModern;fillStyle=dashed;fillColor=#CCCCCC;" vertex="1" parent="1">
          <mxGeometry x="400" y="444" width="240" height="20" as="geometry" />
        </mxCell>
        <mxCell id="NQuJ4hyEysOtelg9H0ul-13" value="" style="endArrow=none;html=1;rounded=0;entryX=0;entryY=1;entryDx=0;entryDy=0;exitX=0.25;exitY=0;exitDx=0;exitDy=0;fontFamily=Computer Modern;fontSource=https%3A%2F%2Ffonts.googleapis.com%2Fcss%3Ffamily%3DComputer%2BModern;" edge="1" parent="1" source="NQuJ4hyEysOtelg9H0ul-12" target="NQuJ4hyEysOtelg9H0ul-11">
          <mxGeometry width="50" height="50" relative="1" as="geometry">
            <mxPoint x="380" y="459" as="sourcePoint" />
            <mxPoint x="430" y="409" as="targetPoint" />
          </mxGeometry>
        </mxCell>
        <mxCell id="NQuJ4hyEysOtelg9H0ul-14" value="" style="endArrow=none;html=1;rounded=0;entryX=1;entryY=1;entryDx=0;entryDy=0;exitX=1;exitY=0;exitDx=0;exitDy=0;fontFamily=Computer Modern;fontSource=https%3A%2F%2Ffonts.googleapis.com%2Fcss%3Ffamily%3DComputer%2BModern;" edge="1" parent="1" source="NQuJ4hyEysOtelg9H0ul-15" target="NQuJ4hyEysOtelg9H0ul-11">
          <mxGeometry width="50" height="50" relative="1" as="geometry">
            <mxPoint x="380" y="459" as="sourcePoint" />
            <mxPoint x="430" y="409" as="targetPoint" />
          </mxGeometry>
        </mxCell>
        <mxCell id="NQuJ4hyEysOtelg9H0ul-15" value="" style="rounded=0;whiteSpace=wrap;html=1;fontFamily=Computer Modern;fontSource=https%3A%2F%2Ffonts.googleapis.com%2Fcss%3Ffamily%3DComputer%2BModern;" vertex="1" parent="1">
          <mxGeometry x="460" y="444" width="80" height="20" as="geometry" />
        </mxCell>
        <mxCell id="NQuJ4hyEysOtelg9H0ul-26" value="Code" style="rounded=0;whiteSpace=wrap;html=1;fontFamily=Computer Modern;fontSource=https%3A%2F%2Ffonts.googleapis.com%2Fcss%3Ffamily%3DComputer%2BModern;" vertex="1" parent="1">
          <mxGeometry x="410" y="340" width="170" height="20" as="geometry" />
        </mxCell>
        <mxCell id="NQuJ4hyEysOtelg9H0ul-29" value="Virtual Memory" style="text;html=1;align=center;verticalAlign=middle;resizable=0;points=[];autosize=1;strokeColor=none;fillColor=none;fontFamily=Computer Modern;fontSource=https%3A%2F%2Ffonts.googleapis.com%2Fcss%3Ffamily%3DComputer%2BModern;" vertex="1" parent="1">
          <mxGeometry x="470" y="505" width="100" height="30" as="geometry" />
        </mxCell>
        <mxCell id="NQuJ4hyEysOtelg9H0ul-30" value="Runtime Address Space" style="text;html=1;align=center;verticalAlign=middle;resizable=0;points=[];autosize=1;strokeColor=none;fillColor=none;fontFamily=Computer Modern;fontSource=https%3A%2F%2Ffonts.googleapis.com%2Fcss%3Ffamily%3DComputer%2BModern;" vertex="1" parent="1">
          <mxGeometry x="450" y="464" width="140" height="30" as="geometry" />
        </mxCell>
        <mxCell id="NQuJ4hyEysOtelg9H0ul-31" value="" style="endArrow=none;html=1;rounded=0;exitX=0;exitY=1;exitDx=0;exitDy=0;entryX=0.25;entryY=0;entryDx=0;entryDy=0;fontFamily=Computer Modern;fontSource=https%3A%2F%2Ffonts.googleapis.com%2Fcss%3Ffamily%3DComputer%2BModern;" edge="1" parent="1" source="NQuJ4hyEysOtelg9H0ul-12" target="NQuJ4hyEysOtelg9H0ul-4">
          <mxGeometry width="50" height="50" relative="1" as="geometry">
            <mxPoint x="450" y="570" as="sourcePoint" />
            <mxPoint x="370" y="790" as="targetPoint" />
          </mxGeometry>
        </mxCell>
        <mxCell id="NQuJ4hyEysOtelg9H0ul-32" value="" style="endArrow=none;html=1;rounded=0;entryX=0.75;entryY=0;entryDx=0;entryDy=0;exitX=1;exitY=1;exitDx=0;exitDy=0;fontFamily=Computer Modern;fontSource=https%3A%2F%2Ffonts.googleapis.com%2Fcss%3Ffamily%3DComputer%2BModern;" edge="1" parent="1" source="NQuJ4hyEysOtelg9H0ul-12" target="NQuJ4hyEysOtelg9H0ul-4">
          <mxGeometry width="50" height="50" relative="1" as="geometry">
            <mxPoint x="780" y="580" as="sourcePoint" />
            <mxPoint x="470" y="540" as="targetPoint" />
          </mxGeometry>
        </mxCell>
        <mxCell id="NQuJ4hyEysOtelg9H0ul-37" value="Physical Memory" style="text;html=1;align=center;verticalAlign=middle;resizable=0;points=[];autosize=1;strokeColor=none;fillColor=none;fontFamily=Computer Modern;fontSource=https%3A%2F%2Ffonts.googleapis.com%2Fcss%3Ffamily%3DComputer%2BModern;" vertex="1" parent="1">
          <mxGeometry x="420" y="610" width="110" height="30" as="geometry" />
        </mxCell>
        <mxCell id="NQuJ4hyEysOtelg9H0ul-38" value="Tag Memory" style="text;html=1;align=center;verticalAlign=middle;resizable=0;points=[];autosize=1;strokeColor=none;fillColor=none;fontFamily=Computer Modern;fontSource=https%3A%2F%2Ffonts.googleapis.com%2Fcss%3Ffamily%3DComputer%2BModern;" vertex="1" parent="1">
          <mxGeometry x="555" y="610" width="90" height="30" as="geometry" />
        </mxCell>
        <mxCell id="NQuJ4hyEysOtelg9H0ul-47" value="Allocator" style="rounded=0;whiteSpace=wrap;html=1;fontFamily=Computer Modern;fontSource=https%3A%2F%2Ffonts.googleapis.com%2Fcss%3Ffamily%3DComputer%2BModern;" vertex="1" parent="1">
          <mxGeometry x="580" y="340" width="50" height="20" as="geometry" />
        </mxCell>
        <mxCell id="NQuJ4hyEysOtelg9H0ul-48" value="Linear Memory" style="text;html=1;align=center;verticalAlign=middle;resizable=0;points=[];autosize=1;strokeColor=none;fillColor=none;fontFamily=Computer Modern;fontSource=https%3A%2F%2Ffonts.googleapis.com%2Fcss%3Ffamily%3DComputer%2BModern;" vertex="1" parent="1">
          <mxGeometry x="470" y="400" width="100" height="30" as="geometry" />
        </mxCell>
        <mxCell id="NQuJ4hyEysOtelg9H0ul-49" value="WebAssembly Instance" style="text;html=1;align=center;verticalAlign=middle;resizable=0;points=[];autosize=1;strokeColor=none;fillColor=none;fontFamily=Computer Modern;fontSource=https%3A%2F%2Ffonts.googleapis.com%2Fcss%3Ffamily%3DComputer%2BModern;" vertex="1" parent="1">
          <mxGeometry x="450" y="300" width="140" height="30" as="geometry" />
        </mxCell>
        <mxCell id="NQuJ4hyEysOtelg9H0ul-50" value="" style="rounded=0;whiteSpace=wrap;html=1;fillColor=#d5e8d4;strokeColor=#000000;fontFamily=Computer Modern;fontSource=https%3A%2F%2Ffonts.googleapis.com%2Fcss%3Ffamily%3DComputer%2BModern;" vertex="1" parent="1">
          <mxGeometry x="430" y="380" width="20" height="20" as="geometry" />
        </mxCell>
        <mxCell id="NQuJ4hyEysOtelg9H0ul-51" value="" style="rounded=0;whiteSpace=wrap;html=1;fillColor=#FFE599;strokeColor=#000000;fontFamily=Computer Modern;fontSource=https%3A%2F%2Ffonts.googleapis.com%2Fcss%3Ffamily%3DComputer%2BModern;" vertex="1" parent="1">
          <mxGeometry x="450" y="380" width="15" height="20" as="geometry" />
        </mxCell>
        <mxCell id="NQuJ4hyEysOtelg9H0ul-53" value="" style="rounded=0;whiteSpace=wrap;html=1;fillColor=#FFCE9F;strokeColor=#000000;fontFamily=Computer Modern;fontSource=https%3A%2F%2Ffonts.googleapis.com%2Fcss%3Ffamily%3DComputer%2BModern;" vertex="1" parent="1">
          <mxGeometry x="570" y="380" width="30" height="20" as="geometry" />
        </mxCell>
        <mxCell id="NQuJ4hyEysOtelg9H0ul-55" value="" style="rounded=0;whiteSpace=wrap;html=1;fillColor=#e1d5e7;strokeColor=#000000;fontFamily=Computer Modern;fontSource=https%3A%2F%2Ffonts.googleapis.com%2Fcss%3Ffamily%3DComputer%2BModern;" vertex="1" parent="1">
          <mxGeometry x="550" y="380" width="10" height="20" as="geometry" />
        </mxCell>
        <mxCell id="NQuJ4hyEysOtelg9H0ul-56" value="" style="rounded=0;whiteSpace=wrap;html=1;fillColor=#d5e8d4;strokeColor=#000000;fontFamily=Computer Modern;fontSource=https%3A%2F%2Ffonts.googleapis.com%2Fcss%3Ffamily%3DComputer%2BModern;" vertex="1" parent="1">
          <mxGeometry x="465" y="444" width="15" height="20" as="geometry" />
        </mxCell>
        <mxCell id="NQuJ4hyEysOtelg9H0ul-57" value="" style="rounded=0;whiteSpace=wrap;html=1;fillColor=#FFE599;strokeColor=#000000;fontFamily=Computer Modern;fontSource=https%3A%2F%2Ffonts.googleapis.com%2Fcss%3Ffamily%3DComputer%2BModern;" vertex="1" parent="1">
          <mxGeometry x="480" y="444" width="10" height="20" as="geometry" />
        </mxCell>
        <mxCell id="NQuJ4hyEysOtelg9H0ul-58" value="" style="rounded=0;whiteSpace=wrap;html=1;fillColor=#FFCE9F;strokeColor=#000000;fontFamily=Computer Modern;fontSource=https%3A%2F%2Ffonts.googleapis.com%2Fcss%3Ffamily%3DComputer%2BModern;rotation=1;" vertex="1" parent="1">
          <mxGeometry x="515" y="444" width="15" height="20" as="geometry" />
        </mxCell>
        <mxCell id="NQuJ4hyEysOtelg9H0ul-59" value="" style="rounded=0;whiteSpace=wrap;html=1;fillColor=#e1d5e7;strokeColor=#000000;fontFamily=Computer Modern;fontSource=https%3A%2F%2Ffonts.googleapis.com%2Fcss%3Ffamily%3DComputer%2BModern;" vertex="1" parent="1">
          <mxGeometry x="505" y="444" width="5" height="20" as="geometry" />
        </mxCell>
        <mxCell id="NQuJ4hyEysOtelg9H0ul-60" value="" style="rounded=0;whiteSpace=wrap;html=1;fillColor=#d5e8d4;strokeColor=#000000;fontFamily=Computer Modern;fontSource=https%3A%2F%2Ffonts.googleapis.com%2Fcss%3Ffamily%3DComputer%2BModern;" vertex="1" parent="1">
          <mxGeometry x="485" y="530" width="10" height="20" as="geometry" />
        </mxCell>
        <mxCell id="NQuJ4hyEysOtelg9H0ul-61" value="" style="rounded=0;whiteSpace=wrap;html=1;fillColor=#FFE599;strokeColor=#000000;fontFamily=Computer Modern;fontSource=https%3A%2F%2Ffonts.googleapis.com%2Fcss%3Ffamily%3DComputer%2BModern;" vertex="1" parent="1">
          <mxGeometry x="495" y="530" width="7" height="20" as="geometry" />
        </mxCell>
        <mxCell id="NQuJ4hyEysOtelg9H0ul-62" value="" style="rounded=0;whiteSpace=wrap;html=1;fillColor=#FFCE9F;strokeColor=#000000;fontFamily=Computer Modern;fontSource=https%3A%2F%2Ffonts.googleapis.com%2Fcss%3Ffamily%3DComputer%2BModern;rotation=1;" vertex="1" parent="1">
          <mxGeometry x="532" y="530" width="11" height="20" as="geometry" />
        </mxCell>
        <mxCell id="NQuJ4hyEysOtelg9H0ul-63" value="" style="rounded=0;whiteSpace=wrap;html=1;fillColor=#e1d5e7;strokeColor=#000000;fontFamily=Computer Modern;fontSource=https%3A%2F%2Ffonts.googleapis.com%2Fcss%3Ffamily%3DComputer%2BModern;" vertex="1" parent="1">
          <mxGeometry x="525" y="530" width="3" height="20" as="geometry" />
        </mxCell>
        <mxCell id="NQuJ4hyEysOtelg9H0ul-65" value="" style="rounded=0;whiteSpace=wrap;html=1;fillColor=#d5e8d4;strokeColor=#000000;fontFamily=Computer Modern;fontSource=https%3A%2F%2Ffonts.googleapis.com%2Fcss%3Ffamily%3DComputer%2BModern;" vertex="1" parent="1">
          <mxGeometry x="571" y="590" width="10" height="20" as="geometry" />
        </mxCell>
        <mxCell id="NQuJ4hyEysOtelg9H0ul-66" value="" style="rounded=0;whiteSpace=wrap;html=1;fillColor=#FFE599;strokeColor=#000000;fontFamily=Computer Modern;fontSource=https%3A%2F%2Ffonts.googleapis.com%2Fcss%3Ffamily%3DComputer%2BModern;" vertex="1" parent="1">
          <mxGeometry x="581" y="590" width="7" height="20" as="geometry" />
        </mxCell>
        <mxCell id="NQuJ4hyEysOtelg9H0ul-67" value="" style="rounded=0;whiteSpace=wrap;html=1;fillColor=#FFCE9F;strokeColor=#000000;fontFamily=Computer Modern;fontSource=https%3A%2F%2Ffonts.googleapis.com%2Fcss%3Ffamily%3DComputer%2BModern;rotation=1;" vertex="1" parent="1">
          <mxGeometry x="608" y="590" width="11" height="20" as="geometry" />
        </mxCell>
        <mxCell id="NQuJ4hyEysOtelg9H0ul-68" value="" style="rounded=0;whiteSpace=wrap;html=1;fillColor=#e1d5e7;strokeColor=#000000;fontFamily=Computer Modern;fontSource=https%3A%2F%2Ffonts.googleapis.com%2Fcss%3Ffamily%3DComputer%2BModern;" vertex="1" parent="1">
          <mxGeometry x="601" y="590" width="3" height="20" as="geometry" />
        </mxCell>
      </root>
    </mxGraphModel>
  </diagram>
</mxfile>
